<?xml version="1.0" encoding="UTF-8"?>
<svg id="Calque_2" xmlns="http://www.w3.org/2000/svg" viewBox="0 0 238.45 301.03">
  <defs>
    <style>
      .cls-1 {
        fill: #2781a0;
      }

      .cls-2 {
        fill: #ef7c1f;
      }

      .cls-3 {
        fill: #768375;
      }

      .cls-4 {
        fill: #ba8341;
      }

      .cls-5 {
        fill: #0a6f9f;
      }
    </style>
  </defs>
  <g id="Calque_1-2" data-name="Calque_1">
    <g>
      <path class="cls-1" d="M224.31,158.82c1.07,13.86,6.25,26.74,9.56,40.07,3.67,14.76,5.82,29.58,3.79,44.81-3.04,22.84-16.18,38-36.2,48.01-1.24-.03-3.08-1.28-2.97,1.45-.58.23-1.17.45-1.75.68-.89-.12-1.68,0-2.13.92,0,0-.06.02-.06.02-4.16-.4-7.68,1.29-11.03,3.46-1.28.19-2.56.37-3.84.56-.68.17-1.37.33-2.05.5-1.03.12-2.05.23-3.08.35-2.87-1.46-5.36.25-7.98.95-1.34,0-2.67.01-4.01.02-6.91-1.89-13.95-.53-20.92-.76-3-.1-6.21-1.03-9.07.85-.99,0-1.99,0-2.98,0-9.89-2.12-19.92-.49-29.88-1.11-4.23-.26-8.59.67-12.78-.31-2.53-.59-4.51-.39-6.34,1.37-.65,0-1.31,0-1.96-.01-.45-1.39,1.95-1.86,1.15-3.39q-4.84.81-7.53-.79c.6-1.8,4.2.66,3.68-2.54-.21-1.3-2.32-2.62-.39-3.81,1.72-1.05,3.32-.27,4.7,1.43,1.23,1.51,3,2.15,2.73-1.02-.11-1.34.85-1.55,1.46-2.26.99-1.15,5.9.49,2.78-3.8-.28-.39,1.22-.56,2.03-.39,2.09.43,2.28,2.41,2.8,3.9,1.91-.51,1.15-2.57,2.67-3.12.9-.32,3.2,1.47,2.57-1.34-.37-1.68-1.77-1.55-3.23-1.12-1.21.35-2.52-.29-2.91-1.38-.42-1.19,1.17-1.33,1.78-2.02,2.32-2.58,4.33-5.22.68-8.36-1.51-1.29-1.36-2.97-.37-4.48.55-.83,1.55-1.49.46-2.47-.92-.83-1.88.22-2.81.15-1.12-.08-2.12,3-2.99.52-.69-1.96-2.2-2.79-3.28-4.18-2.4-3.09-2.09-10.81,1.09-11.96,3.57-1.3,3.25-3.68,2.75-5.84-.64-2.74,3.28-4.57.99-7.38-1.13-1.38-1.51-3.35-.2-4.57,1.54-1.44,3.01.34,4.44,1.01.91.43,3.04.95,2.48.27-1.75-2.14.15-4.46-.57-5.65-4.15-6.82,3.08-13,.71-19.56-.08-.22.25-.59.4-.89,3.46-6.72,6.22-13.94,10.56-20.03,4.79-6.73,6.74-14.73,11.52-21.56,3.33-4.77,6.11-11.34,5.87-18.08-.05-1.45.84-2.34,2.18-2.05,4.58,1.01,4.93-1.74,4.76-5.08h0c2.04-3.53,4.64-5.8,9.05-4.04,0,0-.01-.01-.01-.01.3.85.97,1.11,1.79,1.12.37.24.74.47,1.11.71.31.99,1.04,1.3,2,1.25,0,0,.05.03.05.03-.29,3.1,1.81,3.05,3.93,2.98,0,0,.07.04.07.04.36.29.71.58,1.07.87,0,0,0,0,0,0,.34.33.68.66,1.02,1,0,0,0,0,0,0,.14.78.67,1.08,1.4,1.14,15.93,13.52,24.82,31.18,30.47,50.91,6.66,23.26,6.94,46.63,2.14,70.19-.31,1.51-.55,3.2.52,4.29,1.19,1.2,2.39-.3,3.55-.74,14.35-5.49,25.28-22.55,25.74-39.94.31-11.65-3.51-22.4-6.9-33.26-3.24-10.37-6.6-20.71-9.83-31.08-.33-1.07-.13-2.31-.17-3.46.62-3.53-.49-7.79,3.8-9.84-.43,2.42-1.41,4.54.39,6.8,4.19,5.27,8.3-.53,12.46,0,1.86.24,2.62-1.2,3.05-2.67.27-.93.2-1.96.25-2.94.06-1.07-.6-1.79-1.19-2.61-1.02-1.41-.06-2.71,1.03-3.3,1.06-.57,2.7-.9,3.71-.46,1.03.45,0,1.62-.4,2.51-1.13,2.55.96,2.92,2.58,3.57-.02.67-.04,1.34-.06,2.01-.58,1.67-3.28,3.4.12,4.97Z"/>
      <path class="cls-2" d="M15.68,155.17c1.33-3.55-.17-7.35,1.11-10.95,1.8-5.09,3.2-10.32,5.05-15.38,3.26-8.94,2.42-12.51-4.88-18.31C7.32,102.87,1.1,93.36.65,80.69c.52-4.42,1.09-8.84,1.55-13.27.84-8.06,5.07-15.66,4.18-23.82-1.01-9.29-.42-18.55-.86-27.81.03-2.16-.17-4.35.14-6.46C6.88,1.07,12.76-1.73,20.65,2.03c.35.26.69.52,1.04.78,0,0,.02-.09.02-.09.19.45.25,1.03.58,1.32,8.51,7.49,17.01,14.99,25.63,22.35,1.01.86,2.84,2.48,3.84-.36,11.94-2.15,23.81-.94,35.59,1.13,2.63.46,4-.49,5.65-1.98,8.25-7.44,16.48-14.92,25.6-21.32.95.18,2.72.49,2.19,1.36-3.24,5.34-4.97,11.29-7.36,16.83-3.08,7.13-5.86,14.7-9.93,21.51-1.18,1.96.16,4.46-1.22,6.59-4.48,6.95-8.86,13.94-11.8,21.75-.98,2.6-2.38,5.1-3.95,7.39-4.19,6.14-7.39,12.84-10.91,19.34-1.25,2.3-2.05,4.73-3.93,6.76-4.82,5.19-8.97,10.96-11.56,17.59-3.82,9.78-8.63,19.03-13.76,28.15-.89,1.59-3.23,2.13-3.36,4.17-.54,8.82-2.73,16.94-8.6,23.9-.85,1-1.37,1.72-2.53,1.59-5.22-.59-5.9,3.86-5.92,6.75-.04,5.62-5.08,9.71-3.48,15.54-2.18-3.19-3.16-6.54-3.71-9.96-.73-4.54-1.55-9.05-3.09-13.39,0-.43,0-.86,0-1.29,0-7.75,0-15.5-.01-23.25Z"/>
      <path class="cls-3" d="M39.78,300.15c-7.38.66-14.77,1.33-22.08-.61,1.17-4.25,1.43-8.57,4.9-12.28,2.65-2.84,2.95-7.49,5.43-11.12,3.06-4.49,4.81-10.29,5.89-15.51,1.15-5.55-.26-11.62,4.27-16.35.28-.29.23-.94.26-1.42.44-7.33.49-14.69,3.05-21.77,1.11-3.07,2.46-6.68,1.82-9.64-1.19-5.52,1.46-9.68,4.19-13.18,4.48-5.76,3.77-14.25,10.42-18.64.16-.1.06-.62.05-.94-.16-5.11.92-9.74,3.41-14.41,1.63-3.05,4.04-5.63,5.22-8.9,3.86-10.7,10.75-19.88,14.95-30.49,2.78-7.03,9.52-11.95,12.94-19.03,3.08-6.38,8.21-11.78,9.04-19.23.15-1.39,1.37-1.76,2.18-2.55.99-.97,1.9-1.86,2.69-3.2,4.6-7.77,6.9-16.75,12.63-23.9,1.84-2.29,2.56-5.04,2.07-7.89-.73-4.28.24-8.44.36-12.63.12-4.24,3.16-6.57,4.21-10.09,1.4-4.68-1.38-10.49,3.78-14.21.5-.36.11-1.91.17-2.91.09-1.62-.52-3.36.87-4.74,2.26,7.61,1.06,15.37.74,23.05-.4,9.75-2.1,19.43-1.62,29.24-.32.56-.93,1.12-.92,1.67.11,6.71-.01,13.09-3.41,19.51-1.56,2.95-3.38,6.04-4.74,9.23-4.84,11.33-9.15,22.81-11.07,35.07-.57,3.66-2.51,6.39-6.11,7.75-2.23.84-4.24,2.6-3.56,4.76,1.36,4.31-1.58,6.06-3.94,8.15-1.54,1.36-3.16,2.55-3.2,4.76-.08,4.47-3.33,7.69-5.44,10.87-2.97,4.48-4.63,9.29-6.49,14.08-1.75,4.52-2.14,9.35-5.82,13.33-2.13,2.3-5.11,5.77-2.88,10,.55,1.05-.08,1.76-1.06,1.4-2.46-.89-2.27,1.15-2.83,2.34-2.05,4.36-1.51,9.73-3.53,13.61-4.25,8.16-3.8,17.99-9.7,25.42-.59.74-.13,2.27-.31,3.41-.92,5.87-2.05,11.71-2.81,17.6-1.48,11.49-9.02,20.92-10.86,32.28-.1.61-.49,1.52-.96,1.68-3.6,1.22-2.24,4.04-2.21,6.44Z"/>
      <path class="cls-4" d="M132.5,4.5c-1.39,1.38-.78,3.13-.87,4.74-.06,1,.33,2.55-.17,2.91-5.16,3.72-2.38,9.53-3.78,14.21-1.05,3.52-4.09,5.85-4.21,10.09-.12,4.19-1.09,8.34-.36,12.63.48,2.85-.24,5.6-2.07,7.89-5.74,7.15-8.04,16.13-12.63,23.9-.79,1.33-1.71,2.23-2.69,3.2-.8.79-2.02,1.16-2.18,2.55-.83,7.45-5.96,12.85-9.04,19.23-3.42,7.08-10.16,12.01-12.94,19.03-4.2,10.61-11.1,19.79-14.95,30.49-1.18,3.27-3.59,5.84-5.22,8.9-2.49,4.67-3.57,9.3-3.41,14.41.01.32.1.84-.05.94-6.65,4.39-5.95,12.88-10.42,18.64-2.72,3.5-5.37,7.66-4.19,13.18.64,2.96-.71,6.56-1.82,9.64-2.56,7.08-2.61,14.43-3.05,21.77-.03.49.02,1.13-.26,1.42-4.52,4.73-3.11,10.79-4.27,16.35-1.08,5.22-2.83,11.02-5.89,15.51-2.47,3.63-2.77,8.28-5.43,11.12-3.47,3.72-3.73,8.03-4.9,12.28-5.54-.81-7.19-4.68-7.42-9.56-.36-7.51,1.94-11.46,7.68-13.47,7.83-2.74,11.79-9.84,10.74-18.15-1.32-10.42-1.63-21-3.47-31.31-2.11-11.79-5.47-23.35-8.19-35.03-.94-4.03-1.86-8.1-1.35-12.3,1.53,4.35,2.35,8.85,3.09,13.39.55,3.43,1.54,6.77,3.71,9.96-1.6-5.82,3.44-9.92,3.48-15.54.02-2.89.71-7.34,5.92-6.75,1.16.13,1.68-.58,2.53-1.59,5.87-6.96,8.06-15.08,8.6-23.9.13-2.04,2.46-2.58,3.36-4.17,5.13-9.12,9.94-18.37,13.76-28.15,2.59-6.62,6.74-12.39,11.56-17.59,1.89-2.04,2.69-4.46,3.93-6.76,3.52-6.51,6.72-13.2,10.91-19.34,1.57-2.3,2.97-4.8,3.95-7.39,2.93-7.81,7.32-14.8,11.8-21.75,1.37-2.13.04-4.62,1.22-6.59,4.08-6.81,6.85-14.38,9.93-21.51,2.4-5.54,4.13-11.49,7.36-16.83.53-.87-1.25-1.17-2.19-1.36,6.32-5.31,9.19-5.18,13.89.64Z"/>
      <path class="cls-1" d="M39.78,300.15c-.03-2.4-1.4-5.22,2.21-6.44.47-.16.86-1.07.96-1.68,1.85-11.36,9.38-20.78,10.86-32.28.76-5.89,1.89-11.73,2.81-17.6.18-1.14-.29-2.67.31-3.41,5.91-7.43,5.45-17.26,9.7-25.42,2.02-3.88,1.48-9.26,3.53-13.61.56-1.19.37-3.23,2.83-2.34.98.36,1.61-.35,1.06-1.4-2.23-4.24.75-7.7,2.88-10,3.68-3.98,4.07-8.82,5.82-13.33,1.86-4.79,3.52-9.6,6.49-14.08,2.11-3.19,5.36-6.4,5.44-10.87.04-2.21,1.66-3.4,3.2-4.76,2.36-2.09,5.3-3.85,3.94-8.15-.68-2.17,1.32-3.92,3.56-4.76,3.59-1.35,5.53-4.09,6.11-7.75,1.91-12.26,6.22-23.73,11.07-35.07,1.36-3.19,3.19-6.29,4.74-9.23,3.4-6.42,3.52-12.79,3.41-19.51,0-.55.6-1.11.92-1.67,6.23,19.18,5.12,36.85-10.33,51.76-4.27,4.12-3.42,10.35,1.15,14.34,5.53,4.83,12.42,7.48,18.19,11.88-4.4-1.75-7.01.51-9.05,4.05-.12-.72-.1-1.57-1.19-1.51-.11,0-.3.19-.31.31-.07,1.09.79,1.06,1.5,1.2.17,3.33-.18,6.08-4.76,5.08-1.34-.29-2.23.6-2.18,2.05.24,6.74-2.54,13.32-5.87,18.08-4.78,6.83-6.73,14.84-11.52,21.56-4.34,6.09-7.1,13.31-10.56,20.03-.15.3-.48.67-.4.89,2.38,6.56-4.86,12.74-.71,19.56.72,1.19-1.18,3.51.57,5.65.56.69-1.57.16-2.48-.27-1.42-.68-2.9-2.45-4.44-1.01-1.31,1.23-.93,3.19.2,4.57,2.3,2.82-1.62,4.65-.99,7.38.5,2.16.82,4.54-2.75,5.84-3.18,1.15-3.49,8.87-1.09,11.96,1.08,1.39,2.59,2.22,3.28,4.18.87,2.48,1.87-.6,2.99-.52.93.06,1.89-.98,2.81-.15,1.09.99.09,1.64-.46,2.47-.99,1.51-1.13,3.19.37,4.48,3.65,3.14,1.64,5.77-.68,8.36-.61.68-2.21.82-1.78,2.02.39,1.09,1.7,1.74,2.91,1.38,1.47-.43,2.86-.56,3.23,1.12.63,2.81-1.67,1.02-2.57,1.34-1.52.54-.76,2.61-2.67,3.12-.52-1.49-.71-3.48-2.8-3.9-.81-.17-2.31,0-2.03.39,3.12,4.29-1.79,2.65-2.78,3.8-.61.71-1.57.91-1.46,2.26.27,3.17-1.5,2.52-2.73,1.02-1.38-1.7-2.98-2.48-4.7-1.43-1.93,1.18.18,2.51.39,3.81.52,3.21-3.08.74-3.68,2.54q2.69,1.6,7.53.79c.81,1.53-1.59,2-1.15,3.39-3.87.69-7.43.29-9.5-3.55-2.22-4.13-2.07-8.38.47-12.32,3.78-5.85,9.09-9.11,16.26-8.8,1.82.08,3.65.18,5.47.24,1.01.03,2.1-.04,2.61-1.05.72-1.45-.54-2.08-1.44-2.75-22.66-16.77-21.7-42.46-7.82-62.96,1.86-2.74,4.04-5.27,6.02-7.93.64-.86,2.12-1.62,1.22-2.89-.94-1.32-2.46-.81-3.63-.22-3.96,2-6.54,5.56-9.55,8.63-9.53,9.67-12.14,22.26-14.11,34.89-2.49,15.96-5.69,31.67-12.08,46.57-2.48,5.77-5.45,11.13-12.78,11.65Z"/>
      <path class="cls-1" d="M224.24,151.84c-1.62-.65-3.71-1.02-2.58-3.57.39-.88,1.43-2.05.4-2.51-1-.44-2.65-.11-3.71.46-1.1.59-2.05,1.89-1.03,3.3.59.82,1.25,1.53,1.19,2.61-.05.99.02,2.01-.25,2.94-.43,1.47-1.18,2.91-3.05,2.67-4.15-.53-8.26,5.28-12.46,0-1.8-2.26-.82-4.38-.39-6.8-4.28,2.05-3.17,6.31-3.8,9.84-3.55-15.07-4.58-29.83,6.87-42.36,4.79-5.24,11-8.6,17.98-10.1,4.32-.93,8.17.1,11.14,3.83,2.7,3.4,2.2,6.75.49,10.24-.81,1.64-1.52,3.35-2.52,4.86-4.95,7.47-8.73,15.31-8.28,24.59Z"/>
      <path class="cls-2" d="M6.31,7.14c.49,10.74-.17,21.48.96,32.25,1,9.46-3.74,18.28-4.68,27.62-.51,5.14-1.15,10.26-1.74,15.39-1.69-8.12-.69-16.3,1.33-24,3.6-13.66,2.78-27.46,3.03-41.27.06-3.32-1.07-6.88,1.09-9.99Z"/>
      <path class="cls-2" d="M52,26.28c-1.16,3.09-3.29,1.33-4.45.4-9.99-7.99-19.85-16.13-29.72-24.25-.38-.31-.46-.95-.67-1.43,2.77-.64,4.2,1.47,5.85,2.74,9.73,7.44,19.34,15.02,28.99,22.55Z"/>
      <path class="cls-1" d="M80.6,300.66c1.84-1.77,3.81-1.97,6.34-1.37,4.18.98,8.55.05,12.78.31,9.95.62,19.99-1.01,29.88,1.11-16.33.51-32.67.36-49-.04Z"/>
      <path class="cls-1" d="M132.58,300.7c2.86-1.88,6.07-.95,9.07-.85,6.97.23,14.01-1.13,20.92.76-10,.51-19.99.43-29.99.09Z"/>
      <path class="cls-4" d="M15.68,155.17c0,7.75,0,15.5.01,23.25-1.95-7.75-1.61-15.5-.01-23.25Z"/>
      <path class="cls-1" d="M183.52,298.24c3.36-2.17,6.87-3.86,11.03-3.46-3.37,2.12-7.16,2.92-11.03,3.46Z"/>
      <path class="cls-1" d="M166.58,300.59c2.61-.71,5.1-2.41,7.98-.95-2.57,1.1-5.24,1.27-7.98.95Z"/>
      <path class="cls-1" d="M149.5,140.84c-2.12.07-4.22.13-3.93-2.98,1.53.7,3.06,1.4,3.93,2.98Z"/>
      <path class="cls-1" d="M224.31,158.82c-3.4-1.57-.71-3.3-.12-4.97.04,1.66.08,3.31.12,4.97Z"/>
      <path class="cls-1" d="M198.49,293.16c-.1-2.73,1.73-1.48,2.97-1.45-.73,1.01-1.78,1.37-2.97,1.45Z"/>
      <path class="cls-1" d="M145.52,137.83c-.96.06-1.69-.26-2-1.25.94-.02,1.63.35,2,1.25Z"/>
      <path class="cls-1" d="M142.41,135.87c-.83,0-1.49-.27-1.79-1.12.8.05,1.48.3,1.79,1.12Z"/>
      <path class="cls-1" d="M153.04,143.88c-.73-.06-1.26-.37-1.4-1.14.75.03,1.23.4,1.4,1.14Z"/>
      <path class="cls-1" d="M194.61,294.75c.45-.92,1.23-1.04,2.13-.92-.49.81-1.24,1.02-2.13.92Z"/>
      <path class="cls-1" d="M177.63,299.29c.68-.17,1.37-.33,2.05-.5-.59.57-1.26.77-2.05.5Z"/>
      <path class="cls-4" d="M21.7,2.81c-.35-.26-.69-.52-1.04-.78.63-.13.96.17,1.04.78Z"/>
      <path class="cls-1" d="M150.64,141.75c-.36-.29-.71-.58-1.07-.87.36.29.71.58,1.07.87Z"/>
      <path class="cls-1" d="M151.65,142.74c-.34-.33-.68-.66-1.02-1,.34.33.68.66,1.02,1Z"/>
      <path class="cls-5" d="M131.59,138.81c-.71-.13-1.57-.1-1.5-1.2,0-.11.2-.3.31-.31,1.09-.06,1.07.79,1.19,1.51,0,0,0,0,0,0Z"/>
    </g>
  </g>
</svg>